<svg width="761" height="166" viewBox="0 0 761 166" fill="none" xmlns="http://www.w3.org/2000/svg">
<g clip-path="url(#clip0_303_2)">
<path d="M82.0599 166C63.9641 166 46.507 158.117 34.5851 143.417C25.2178 131.912 16.9151 122.112 9.88964 114.016C2.01264 105.068 -1.39362 93.3507 0.522404 81.633C2.43843 69.9154 9.25096 59.6891 19.6827 53.7238L102.71 5.3619C113.994 -1.24258 127.619 -1.66868 139.328 3.65752C151.037 9.19676 159.34 20.0622 161.469 32.8451L172.113 97.6116C174.881 114.442 166.578 131.06 151.463 138.943C140.605 144.695 125.916 151.726 108.033 160.035C99.7299 164.083 90.7885 166 82.0599 166ZM23.7276 60.9674C15.6377 65.6544 10.3154 73.5372 8.82518 82.6983C7.33494 91.8593 10.1025 101.233 16.2764 108.051C23.5147 116.147 31.8175 126.16 41.1847 137.665C56.5129 156.413 82.4857 162.378 104.414 152.152C122.084 143.843 136.56 136.812 147.418 131.06C159.34 124.882 165.726 111.886 163.597 98.6769L152.953 33.9103C151.25 23.684 144.863 15.3752 135.709 11.1142C126.341 6.64019 115.91 7.27933 106.968 12.3925L23.7276 60.9674Z" fill="#FFFFFF"/>
<path d="M215.554 3.75146H209.931V161.315H215.554V3.75146Z" fill="#FFFFFF"/>
<path d="M269.755 96.0065H261.133V119.38C258.804 119.817 255.894 120.036 252.401 120.036C248.836 120.036 245.926 119.817 243.67 119.38V45.327L244.434 44.5625C250.764 44.4168 256.021 44.3076 260.205 44.2348C264.389 44.162 267.572 44.1256 269.755 44.1256C273.757 44.1256 277.413 44.6717 280.724 45.7639C284.035 46.8562 286.854 48.4945 289.183 50.679C291.511 52.8634 293.312 55.5758 294.585 58.8161C295.858 62.0564 296.495 65.7881 296.495 70.0114C296.495 74.2347 295.84 77.9665 294.531 81.2068C293.221 84.4471 291.402 87.1594 289.073 89.3439C286.745 91.5283 283.925 93.1849 280.615 94.3135C277.304 95.4422 273.684 96.0065 269.755 96.0065ZM261.133 57.4508V82.8997C263.17 82.8269 264.789 82.7723 265.99 82.7359C267.19 82.6995 267.972 82.6813 268.336 82.6813C270.301 82.6813 271.938 82.3354 273.248 81.6437C274.557 80.9519 275.612 80.0417 276.413 78.9131C277.213 77.7845 277.795 76.4556 278.159 74.9265C278.523 73.3973 278.705 71.7954 278.705 70.1206C278.705 68.5187 278.523 66.9532 278.159 65.4241C277.795 63.8949 277.231 62.5479 276.467 61.3828C275.703 60.2178 274.703 59.2894 273.466 58.5976C272.229 57.9059 270.774 57.56 269.1 57.56H264.625C264.625 57.56 263.461 57.5236 261.133 57.4508ZM361.435 67.827C361.435 70.2299 361.071 72.5054 360.344 74.6534C359.616 76.8015 358.652 78.7311 357.451 80.4422C356.251 82.1534 354.832 83.6461 353.195 84.9204C351.558 86.1946 349.866 87.1594 348.12 87.8148C351.903 89.1983 354.705 92.5478 356.524 97.8633L359.798 107.147C361.035 110.788 362.854 113.482 365.255 115.23C364.164 116.686 362.527 117.906 360.344 118.889C358.161 119.872 355.76 120.363 353.14 120.363C350.521 120.363 348.483 119.617 347.028 118.124C345.573 116.631 344.227 114.028 342.99 110.315L339.061 98.8463C338.26 96.6618 337.187 94.9871 335.841 93.822C334.495 92.657 332.476 92.0745 329.784 92.0745H325.309V119.38C322.98 119.817 320.07 120.036 316.577 120.036C313.085 120.036 310.211 119.817 307.955 119.38V45.327L308.719 44.5625C315.049 44.4168 320.379 44.3076 324.709 44.2348C329.038 44.162 332.439 44.1256 334.913 44.1256C338.915 44.1256 342.553 44.6171 345.828 45.6001C349.102 46.5831 351.885 48.0576 354.177 50.0236C356.469 51.9896 358.252 54.4654 359.525 57.4508C360.798 60.4362 361.435 63.8949 361.435 67.827ZM325.309 57.2323V78.64C328.583 78.64 331.384 78.5854 333.713 78.4762C336.041 78.367 337.915 77.9301 339.334 77.1655C340.753 76.401 341.826 75.3269 342.553 73.9435C343.281 72.56 343.645 70.5575 343.645 67.9362C343.645 60.8731 340.225 57.3416 333.385 57.3416H328.856C328.856 57.3416 327.674 57.3052 325.309 57.2323ZM392.213 97.3172L392.104 105.181V105.29C395.451 105.145 398.143 105.072 400.181 105.072H425.502C425.502 107.766 425.393 109.841 425.175 111.298C424.301 116.904 420.591 119.708 414.042 119.708H385.01C381.881 119.708 379.425 118.798 377.643 116.977C375.86 115.157 374.969 112.681 374.969 109.55V45.5455L375.733 44.7809H422.773C423.21 46.8926 423.428 49.1862 423.428 51.662C423.428 54.1377 422.919 56.7226 421.9 59.4168H392.104L392.213 67.2809V74.9265C394.105 74.8536 396.579 74.8172 399.635 74.8172H416.334C416.989 76.8561 417.316 79.1862 417.316 81.8075C417.316 84.4289 416.989 86.8318 416.334 89.0162H392.213V97.3172ZM430.959 112.936C431.177 110.533 431.923 108.13 433.197 105.727C434.47 103.324 435.98 101.358 437.726 99.8293C445.512 104.562 452.897 106.929 459.882 106.929C462.938 106.929 465.175 106.237 466.594 104.854C468.013 103.47 468.723 101.759 468.723 99.7201C468.723 96.2977 466.431 93.6036 461.847 91.6376L448.968 86.1764C443.947 83.9191 440.091 81.2068 437.399 78.0393C434.706 74.8718 433.36 70.8488 433.36 65.9702C433.36 62.6207 434.033 59.5624 435.379 56.7954C436.725 54.0285 438.617 51.6256 441.055 49.5867C443.492 47.5479 446.385 45.9642 449.732 44.8355C453.079 43.7069 456.79 43.1426 460.864 43.1426C469.014 43.1426 477.236 45.2178 485.531 49.3683C485.167 54.9751 483.202 59.344 479.637 62.475C472.215 58.9071 465.667 57.1231 459.991 57.1231C457.081 57.1231 454.898 57.7785 453.443 59.0891C451.987 60.3998 451.26 61.8925 451.26 63.5673C451.26 66.4071 453.406 68.7008 457.699 70.4483L470.796 76.0187C476.326 78.3488 480.455 81.3342 483.184 84.975C485.913 88.6157 487.277 92.839 487.277 97.6448C487.277 101.067 486.658 104.198 485.421 107.038C484.184 109.878 482.347 112.335 479.91 114.411C477.472 116.486 474.434 118.106 470.796 119.271C467.158 120.436 462.902 121.019 458.027 121.019C448.567 121.019 439.545 118.324 430.959 112.936ZM515.545 97.3172L515.436 105.181V105.29C518.783 105.145 521.475 105.072 523.512 105.072H548.833C548.833 107.766 548.724 109.841 548.506 111.298C547.633 116.904 543.922 119.708 537.373 119.708H508.341C505.213 119.708 502.757 118.798 500.974 116.977C499.192 115.157 498.3 112.681 498.3 109.55V45.5455L499.064 44.7809H546.105C546.541 46.8926 546.76 49.1862 546.76 51.662C546.76 54.1377 546.25 56.7226 545.232 59.4168H515.436L515.545 67.2809V74.9265C517.437 74.8536 519.911 74.8172 522.967 74.8172H539.665C540.32 76.8561 540.648 79.1862 540.648 81.8075C540.648 84.4289 540.32 86.8318 539.665 89.0162H515.545V97.3172ZM589.216 59.1984L589.325 67.2809V119.38C586.852 119.817 583.905 120.036 580.485 120.036C577.065 120.036 574.191 119.817 571.863 119.38V59.1984L564.877 59.3076H553.636C553.199 57.1959 552.981 54.7748 552.981 52.0442C552.981 49.3137 553.199 46.8926 553.636 44.7809H607.661C608.244 46.6741 608.535 48.9678 608.535 51.662C608.535 54.3561 607.807 56.3039 606.352 57.5054C604.897 58.7069 602.568 59.3076 599.367 59.3076H596.201L589.325 59.1984H589.216ZM607.116 105.29C608.353 104.635 609.699 104.144 611.154 103.816C612.609 103.488 614.101 103.324 615.629 103.324C618.976 103.324 621.85 103.98 624.251 105.29C625.124 107.184 625.561 109.405 625.561 111.953C625.561 113.191 625.452 114.374 625.233 115.503C625.015 116.631 624.688 117.633 624.251 118.506C622.214 119.89 619.34 120.582 615.629 120.582C611.991 120.582 609.153 119.89 607.116 118.506C606.679 117.633 606.352 116.631 606.133 115.503C605.915 114.374 605.806 113.191 605.806 111.953C605.806 109.405 606.243 107.184 607.116 105.29ZM657.758 103.761C655.793 103.761 654.338 103.725 653.392 103.652L648.699 119.489C646.953 119.926 644.515 120.145 641.387 120.145C637.894 120.145 635.056 119.744 632.873 118.943L632.328 118.07L656.339 44.7809C659.177 44.344 662.488 44.1256 666.271 44.1256C670.564 44.1256 673.984 44.3804 676.531 44.8901L700.105 118.288C697.559 119.671 694.685 120.363 691.483 120.363C687.7 120.363 685.044 119.708 683.516 118.397C681.988 117.087 680.678 114.574 679.587 110.861L677.513 103.652C676.567 103.725 675.148 103.761 673.256 103.761H657.758ZM657.431 89.9992L661.796 89.89H669.764C670.128 89.89 670.764 89.9082 671.674 89.9446C672.583 89.981 673.256 89.9992 673.693 89.9992L671.837 83.2274C670.091 77.1109 668.09 69.6109 665.835 60.7275H665.18C664.598 63.8585 662.851 70.8124 659.941 81.5891L657.431 89.9992ZM709.492 119.38V44.7809C711.747 44.344 714.658 44.1256 718.223 44.1256C721.789 44.1256 724.735 44.344 727.064 44.7809V119.38C724.735 119.817 721.789 120.036 718.223 120.036C714.658 120.036 711.747 119.817 709.492 119.38Z" fill="#FFFFFF"/>
</g>
<defs>
<clipPath id="clip0_303_2">
<rect width="761" height="166" fill="white"/>
</clipPath>
</defs>
</svg>
